# xmcd
#
# Track frame offsets:
#	150
#	18263
#	43176
#	66829
#	92443
#	113293
#
# Disc length: 1784 seconds
#
# Revision: 0
# Processed by: cddbd v1.5.2PL0 Copyright (c) Steve Scherf et al.
# Submitted via: EasyCDDAExtractor 16.1.1.1
#
DISCID=3d06f606
DTITLE=London Grammar - Strong (Promo CD-R)
DYEAR=2013
DGENRE=Pop
TTITLE0=Strong (Radio Edit)
TTITLE1=Strong (High Contrast Remix)
TTITLE2=Strong (Hackman Remix)
TTITLE3=Strong (Shadow Child 4/4 Remix)
TTITLE4=Strong (Fracture Remix)
TTITLE5=Strong (Instrumental)
EXTD=
EXTT0=
EXTT1=
EXTT2=
EXTT3=
EXTT4=
EXTT5=
PLAYORDER=
